{
    "asset" : {
        "generator" : "Khronos glTF Blender I/O v1.7.33",
        "version" : "2.0"
    },
    "scene" : 0,
    "scenes" : [
        {
            "name" : "Scene",
            "nodes" : [
                0,
                1,
                2,
                4,
                5,
                6,
                7,
                8
            ]
        }
    ],
    "nodes" : [
        {
            "mesh" : 0,
            "name" : "Text.002",
            "rotation" : [
                0.5044310688972473,
                0.5006217956542969,
                -0.49933892488479614,
                0.4955681264400482
            ],
            "scale" : [
                0.3825584650039673,
                0.3825584053993225,
                0.3825584053993225
            ],
            "translation" : [
                3.3801403045654297,
                0.49604010581970215,
                1.1725475788116455
            ]
        },
        {
            "mesh" : 1,
            "name" : "Text.001",
            "rotation" : [
                0.47685372829437256,
                0.517134964466095,
                -0.5022656321525574,
                0.5029027462005615
            ],
            "scale" : [
                0.26261645555496216,
                0.26261642575263977,
                0.26261642575263977
            ],
            "translation" : [
                0.5786532759666443,
                2.5566229820251465,
                1.215023398399353
            ]
        },
        {
            "mesh" : 2,
            "name" : "Text",
            "rotation" : [
                0.5549752116203308,
                0.4414353668689728,
                -0.41361865401268005,
                0.5710139870643616
            ],
            "scale" : [
                0.29749229550361633,
                0.2974923551082611,
                0.29749223589897156
            ],
            "translation" : [
                -0.001978754997253418,
                1.867761492729187,
                -1.4158039093017578
            ]
        },
        {
            "mesh" : 3,
            "name" : "Sphere.001",
            "scale" : [
                0.4451427459716797,
                0.4451427161693573,
                0.4451427459716797
            ],
            "translation" : [
                0,
                -2.3151302337646484,
                -4.764245986938477
            ]
        },
        {
            "children" : [
                3
            ],
            "name" : "Empty",
            "scale" : [
                0.34544336795806885,
                0.34544339776039124,
                0.34544336795806885
            ],
            "translation" : [
                0.39598917961120605,
                1.2961788177490234,
                0.11374738812446594
            ]
        },
        {
            "mesh" : 4,
            "name" : "Torus",
            "scale" : [
                0.7373085618019104,
                0.7373085618019104,
                0.7373085618019104
            ],
            "translation" : [
                0.39598917961120605,
                0.4964323043823242,
                0.11374738812446594
            ]
        },
        {
            "mesh" : 5,
            "name" : "Sphere",
            "scale" : [
                0.37904903292655945,
                0.37904903292655945,
                0.37904903292655945
            ],
            "translation" : [
                0.39598917961120605,
                0.4964323043823242,
                0.11374738812446594
            ]
        },
        {
            "mesh" : 6,
            "name" : "Cylinder.003",
            "rotation" : [
                -0.13960690796375275,
                0.37539803981781006,
                -0.025086792185902596,
                0.9159458875656128
            ],
            "scale" : [
                0.02642192877829075,
                0.038395658135414124,
                0.02642192505300045
            ],
            "translation" : [
                0.1748746633529663,
                0.9602416157722473,
                -1.691855788230896
            ]
        },
        {
            "mesh" : 7,
            "name" : "Cylinder.000",
            "rotation" : [
                0.13566286861896515,
                0.07231263816356659,
                -0.035570524632930756,
                0.9874721169471741
            ],
            "scale" : [
                0.044748805463314056,
                0.051347460597753525,
                0.044748805463314056
            ],
            "translation" : [
                0.4413210153579712,
                1.4424512386322021,
                0.42461881041526794
            ]
        }
    ],
    "animations" : [
        {
            "channels" : [
                {
                    "sampler" : 0,
                    "target" : {
                        "node" : 4,
                        "path" : "rotation"
                    }
                }
            ],
            "name" : "EmptyAction.001",
            "samplers" : [
                {
                    "input" : 27,
                    "interpolation" : "LINEAR",
                    "output" : 28
                }
            ]
        },
        {
            "channels" : [
                {
                    "sampler" : 0,
                    "target" : {
                        "node" : 3,
                        "path" : "rotation"
                    }
                }
            ],
            "name" : "Sphere.001Action",
            "samplers" : [
                {
                    "input" : 29,
                    "interpolation" : "LINEAR",
                    "output" : 30
                }
            ]
        }
    ],
    "materials" : [
        {
            "doubleSided" : true,
            "name" : "Material.008",
            "pbrMetallicRoughness" : {
                "baseColorFactor" : [
                    0.0015474370447918773,
                    0.0015474370447918773,
                    0.0015474370447918773,
                    1
                ],
                "metallicFactor" : 0,
                "roughnessFactor" : 0.5
            }
        },
        {
            "doubleSided" : true,
            "name" : "Material.006",
            "pbrMetallicRoughness" : {
                "baseColorFactor" : [
                    0.004895583726465702,
                    0.004895583726465702,
                    0.004895583726465702,
                    1
                ],
                "metallicFactor" : 0,
                "roughnessFactor" : 0.5
            }
        },
        {
            "doubleSided" : true,
            "name" : "Material.004",
            "pbrMetallicRoughness" : {
                "baseColorFactor" : [
                    0.004895583726465702,
                    0.004895583726465702,
                    0.004895583726465702,
                    1
                ],
                "metallicFactor" : 0,
                "roughnessFactor" : 0.5
            }
        },
        {
            "doubleSided" : true,
            "name" : "Material.002",
            "pbrMetallicRoughness" : {
                "baseColorFactor" : [
                    0.0033278390765190125,
                    0.06521648913621902,
                    0.8000000715255737,
                    1
                ],
                "metallicFactor" : 0,
                "roughnessFactor" : 0.5
            }
        },
        {
            "doubleSided" : true,
            "name" : "Material.001",
            "pbrMetallicRoughness" : {
                "baseColorFactor" : [
                    1,
                    0.00897922646254301,
                    0.00897922646254301,
                    1
                ],
                "metallicFactor" : 0,
                "roughnessFactor" : 0.5
            }
        },
        {
            "doubleSided" : true,
            "name" : "Material.003",
            "pbrMetallicRoughness" : {
                "baseColorFactor" : [
                    0.005082585848867893,
                    1,
                    0,
                    1
                ],
                "metallicFactor" : 0,
                "roughnessFactor" : 0.5
            }
        },
        {
            "doubleSided" : true,
            "name" : "Material.007",
            "pbrMetallicRoughness" : {
                "baseColorFactor" : [
                    0.005082585848867893,
                    1,
                    0,
                    1
                ],
                "metallicFactor" : 0,
                "roughnessFactor" : 0.5
            }
        }
    ],
    "meshes" : [
        {
            "name" : "Text.002",
            "primitives" : [
                {
                    "attributes" : {
                        "POSITION" : 0,
                        "NORMAL" : 1,
                        "TEXCOORD_0" : 2
                    },
                    "indices" : 3,
                    "material" : 0
                }
            ]
        },
        {
            "name" : "Text.001",
            "primitives" : [
                {
                    "attributes" : {
                        "POSITION" : 4,
                        "NORMAL" : 5,
                        "TEXCOORD_0" : 6
                    },
                    "indices" : 7,
                    "material" : 1
                }
            ]
        },
        {
            "name" : "Text",
            "primitives" : [
                {
                    "attributes" : {
                        "POSITION" : 8,
                        "NORMAL" : 9,
                        "TEXCOORD_0" : 10
                    },
                    "indices" : 11,
                    "material" : 2
                }
            ]
        },
        {
            "name" : "Sphere.001",
            "primitives" : [
                {
                    "attributes" : {
                        "POSITION" : 12,
                        "NORMAL" : 13
                    },
                    "indices" : 14,
                    "material" : 3
                }
            ]
        },
        {
            "name" : "Torus",
            "primitives" : [
                {
                    "attributes" : {
                        "POSITION" : 15,
                        "NORMAL" : 16
                    },
                    "indices" : 17
                }
            ]
        },
        {
            "name" : "Sphere",
            "primitives" : [
                {
                    "attributes" : {
                        "POSITION" : 18,
                        "NORMAL" : 19
                    },
                    "indices" : 20,
                    "material" : 4
                }
            ]
        },
        {
            "name" : "Cylinder.003",
            "primitives" : [
                {
                    "attributes" : {
                        "POSITION" : 21,
                        "NORMAL" : 22,
                        "COLOR_0" : 23
                    },
                    "indices" : 24,
                    "material" : 5
                }
            ]
        },
        {
            "name" : "Cylinder.001",
            "primitives" : [
                {
                    "attributes" : {
                        "POSITION" : 25,
                        "NORMAL" : 26
                    },
                    "indices" : 24,
                    "material" : 6
                }
            ]
        }
    ],
    "accessors" : [
        {
            "bufferView" : 0,
            "componentType" : 5126,
            "count" : 3234,
            "max" : [
                6.61299991607666,
                0.07999999821186066,
                0.23000000417232513
            ],
            "min" : [
                0.07500000298023224,
                -0.07999999821186066,
                -0.6940000057220459
            ],
            "type" : "VEC3"
        },
        {
            "bufferView" : 1,
            "componentType" : 5126,
            "count" : 3234,
            "type" : "VEC3"
        },
        {
            "bufferView" : 2,
            "componentType" : 5126,
            "count" : 3234,
            "type" : "VEC2"
        },
        {
            "bufferView" : 3,
            "componentType" : 5123,
            "count" : 5820,
            "type" : "SCALAR"
        },
        {
            "bufferView" : 4,
            "componentType" : 5126,
            "count" : 3604,
            "max" : [
                3.188000202178955,
                0.034999996423721313,
                0.009000000543892384
            ],
            "min" : [
                0.07000000029802322,
                -0.034999996423721313,
                -0.6820000410079956
            ],
            "type" : "VEC3"
        },
        {
            "bufferView" : 5,
            "componentType" : 5126,
            "count" : 3604,
            "type" : "VEC3"
        },
        {
            "bufferView" : 6,
            "componentType" : 5126,
            "count" : 3604,
            "type" : "VEC2"
        },
        {
            "bufferView" : 7,
            "componentType" : 5123,
            "count" : 6576,
            "type" : "SCALAR"
        },
        {
            "bufferView" : 8,
            "componentType" : 5126,
            "count" : 4056,
            "max" : [
                3.7619998455047607,
                0.032999999821186066,
                0.009000000543892384
            ],
            "min" : [
                0.07500000298023224,
                -0.032999999821186066,
                -0.6820000410079956
            ],
            "type" : "VEC3"
        },
        {
            "bufferView" : 9,
            "componentType" : 5126,
            "count" : 4056,
            "type" : "VEC3"
        },
        {
            "bufferView" : 10,
            "componentType" : 5126,
            "count" : 4056,
            "type" : "VEC2"
        },
        {
            "bufferView" : 11,
            "componentType" : 5123,
            "count" : 7272,
            "type" : "SCALAR"
        },
        {
            "bufferView" : 12,
            "componentType" : 5126,
            "count" : 482,
            "max" : [
                1.000000238418579,
                1,
                1.0000003576278687
            ],
            "min" : [
                -0.9999998211860657,
                -1,
                -0.9999991655349731
            ],
            "type" : "VEC3"
        },
        {
            "bufferView" : 13,
            "componentType" : 5126,
            "count" : 482,
            "type" : "VEC3"
        },
        {
            "bufferView" : 14,
            "componentType" : 5123,
            "count" : 2880,
            "type" : "SCALAR"
        },
        {
            "bufferView" : 15,
            "componentType" : 5126,
            "count" : 552,
            "max" : [
                2.2999987602233887,
                0.03999999910593033,
                2.2946369647979736
            ],
            "min" : [
                -2.2999987602233887,
                -0.03999999910593033,
                -2.2946369647979736
            ],
            "type" : "VEC3"
        },
        {
            "bufferView" : 16,
            "componentType" : 5126,
            "count" : 552,
            "type" : "VEC3"
        },
        {
            "bufferView" : 17,
            "componentType" : 5123,
            "count" : 3312,
            "type" : "SCALAR"
        },
        {
            "bufferView" : 18,
            "componentType" : 5126,
            "count" : 482,
            "max" : [
                1.000000238418579,
                1,
                1.0000003576278687
            ],
            "min" : [
                -0.9999998211860657,
                -1,
                -0.9999991655349731
            ],
            "type" : "VEC3"
        },
        {
            "bufferView" : 19,
            "componentType" : 5126,
            "count" : 482,
            "type" : "VEC3"
        },
        {
            "bufferView" : 20,
            "componentType" : 5123,
            "count" : 2880,
            "type" : "SCALAR"
        },
        {
            "bufferView" : 21,
            "componentType" : 5126,
            "count" : 128,
            "max" : [
                2.3222715854644775,
                20.935077667236328,
                2.3222718238830566
            ],
            "min" : [
                -2.3222715854644775,
                -6.670833110809326,
                -2.3222711086273193
            ],
            "type" : "VEC3"
        },
        {
            "bufferView" : 22,
            "componentType" : 5126,
            "count" : 128,
            "type" : "VEC3"
        },
        {
            "bufferView" : 23,
            "componentType" : 5123,
            "count" : 128,
            "normalized" : true,
            "type" : "VEC4"
        },
        {
            "bufferView" : 24,
            "componentType" : 5123,
            "count" : 756,
            "type" : "SCALAR"
        },
        {
            "bufferView" : 25,
            "componentType" : 5126,
            "count" : 128,
            "max" : [
                2.3222715854644775,
                20.935077667236328,
                2.3222718238830566
            ],
            "min" : [
                -2.3222715854644775,
                -6.670833110809326,
                -2.3222711086273193
            ],
            "type" : "VEC3"
        },
        {
            "bufferView" : 26,
            "componentType" : 5126,
            "count" : 128,
            "type" : "VEC3"
        },
        {
            "bufferView" : 27,
            "componentType" : 5126,
            "count" : 61,
            "max" : [
                2.5
            ],
            "min" : [
                0
            ],
            "type" : "SCALAR"
        },
        {
            "bufferView" : 28,
            "componentType" : 5126,
            "count" : 61,
            "type" : "VEC4"
        },
        {
            "bufferView" : 29,
            "componentType" : 5126,
            "count" : 2,
            "max" : [
                2.5
            ],
            "min" : [
                0
            ],
            "type" : "SCALAR"
        },
        {
            "bufferView" : 30,
            "componentType" : 5126,
            "count" : 2,
            "type" : "VEC4"
        }
    ],
    "bufferViews" : [
        {
            "buffer" : 0,
            "byteLength" : 38808,
            "byteOffset" : 0
        },
        {
            "buffer" : 0,
            "byteLength" : 38808,
            "byteOffset" : 38808
        },
        {
            "buffer" : 0,
            "byteLength" : 25872,
            "byteOffset" : 77616
        },
        {
            "buffer" : 0,
            "byteLength" : 11640,
            "byteOffset" : 103488
        },
        {
            "buffer" : 0,
            "byteLength" : 43248,
            "byteOffset" : 115128
        },
        {
            "buffer" : 0,
            "byteLength" : 43248,
            "byteOffset" : 158376
        },
        {
            "buffer" : 0,
            "byteLength" : 28832,
            "byteOffset" : 201624
        },
        {
            "buffer" : 0,
            "byteLength" : 13152,
            "byteOffset" : 230456
        },
        {
            "buffer" : 0,
            "byteLength" : 48672,
            "byteOffset" : 243608
        },
        {
            "buffer" : 0,
            "byteLength" : 48672,
            "byteOffset" : 292280
        },
        {
            "buffer" : 0,
            "byteLength" : 32448,
            "byteOffset" : 340952
        },
        {
            "buffer" : 0,
            "byteLength" : 14544,
            "byteOffset" : 373400
        },
        {
            "buffer" : 0,
            "byteLength" : 5784,
            "byteOffset" : 387944
        },
        {
            "buffer" : 0,
            "byteLength" : 5784,
            "byteOffset" : 393728
        },
        {
            "buffer" : 0,
            "byteLength" : 5760,
            "byteOffset" : 399512
        },
        {
            "buffer" : 0,
            "byteLength" : 6624,
            "byteOffset" : 405272
        },
        {
            "buffer" : 0,
            "byteLength" : 6624,
            "byteOffset" : 411896
        },
        {
            "buffer" : 0,
            "byteLength" : 6624,
            "byteOffset" : 418520
        },
        {
            "buffer" : 0,
            "byteLength" : 5784,
            "byteOffset" : 425144
        },
        {
            "buffer" : 0,
            "byteLength" : 5784,
            "byteOffset" : 430928
        },
        {
            "buffer" : 0,
            "byteLength" : 5760,
            "byteOffset" : 436712
        },
        {
            "buffer" : 0,
            "byteLength" : 1536,
            "byteOffset" : 442472
        },
        {
            "buffer" : 0,
            "byteLength" : 1536,
            "byteOffset" : 444008
        },
        {
            "buffer" : 0,
            "byteLength" : 1024,
            "byteOffset" : 445544
        },
        {
            "buffer" : 0,
            "byteLength" : 1512,
            "byteOffset" : 446568
        },
        {
            "buffer" : 0,
            "byteLength" : 1536,
            "byteOffset" : 448080
        },
        {
            "buffer" : 0,
            "byteLength" : 1536,
            "byteOffset" : 449616
        },
        {
            "buffer" : 0,
            "byteLength" : 244,
            "byteOffset" : 451152
        },
        {
            "buffer" : 0,
            "byteLength" : 976,
            "byteOffset" : 451396
        },
        {
            "buffer" : 0,
            "byteLength" : 8,
            "byteOffset" : 452372
        },
        {
            "buffer" : 0,
            "byteLength" : 32,
            "byteOffset" : 452380
        }
    ],
    "buffers" : [
        {
            "byteLength" : 452412,
            "uri" : "data:application/octet-stream;base64,"
        }
    ]
}
